<?xml version="1.0"?>
<VTKFile type="PolyData" version="0.1" byte_order="LittleEndian">
<PolyData>
<Piece NumberOfPoints="961" NumberOfPolys="1800">
<Points>
<DataArray type="Float64" NumberOfComponents="3" format="ascii">
6.000000e-01 6.000000e-01 6.500000e-01
6.000000e-01 6.000000e-01 6.500000e-01
6.000000e-01 6.000000e-01 6.500000e-01
6.000000e-01 6.000000e-01 6.500000e-01
6.000000e-01 6.000000e-01 6.500000e-01
6.000000e-01 6.000000e-01 6.500000e-01
6.000000e-01 6.000000e-01 6.500000e-01
6.000000e-01 6.000000e-01 6.500000e-01
6.000000e-01 6.000000e-01 6.500000e-01
6.000000e-01 6.000000e-01 6.500000e-01
6.000000e-01 6.000000e-01 6.500000e-01
6.000000e-01 6.000000e-01 6.500000e-01
6.000000e-01 6.000000e-01 6.500000e-01
6.000000e-01 6.000000e-01 6.500000e-01
6.000000e-01 6.000000e-01 6.500000e-01
6.000000e-01 6.000000e-01 6.500000e-01
6.000000e-01 6.000000e-01 6.500000e-01
6.000000e-01 6.000000e-01 6.500000e-01
6.000000e-01 6.000000e-01 6.500000e-01
6.000000e-01 6.000000e-01 6.500000e-01
6.000000e-01 6.000000e-01 6.500000e-01
6.000000e-01 6.000000e-01 6.500000e-01
6.000000e-01 6.000000e-01 6.500000e-01
6.000000e-01 6.000000e-01 6.500000e-01
6.000000e-01 6.000000e-01 6.500000e-01
6.000000e-01 6.000000e-01 6.500000e-01
6.000000e-01 6.000000e-01 6.500000e-01
6.000000e-01 6.000000e-01 6.500000e-01
6.000000e-01 6.000000e-01 6.500000e-01
6.000000e-01 6.000000e-01 6.500000e-01
6.000000e-01 6.000000e-01 6.500000e-01
6.156793e-01 6.000000e-01 6.491783e-01
6.153366e-01 6.032599e-01 6.491783e-01
6.143237e-01 6.063773e-01 6.491783e-01
6.126848e-01 6.092160e-01 6.491783e-01
6.104915e-01 6.116520e-01 6.491783e-01
6.078396e-01 6.135786e-01 6.491783e-01
6.048452e-01 6.149119e-01 6.491783e-01
6.016389e-01 6.155934e-01 6.491783e-01
5.983611e-01 6.155934e-01 6.491783e-01
5.951548e-01 6.149119e-01 6.491783e-01
5.921604e-01 6.135786e-01 6.491783e-01
5.895085e-01 6.116520e-01 6.491783e-01
5.873152e-01 6.092160e-01 6.491783e-01
5.856763e-01 6.063773e-01 6.491783e-01
5.846634e-01 6.032599e-01 6.491783e-01
5.843207e-01 6.000000e-01 6.491783e-01
5.846634e-01 5.967401e-01 6.491783e-01
5.856763e-01 5.936227e-01 6.491783e-01
5.873152e-01 5.907840e-01 6.491783e-01
5.895085e-01 5.883480e-01 6.491783e-01
5.921604e-01 5.864214e-01 6.491783e-01
5.951548e-01 5.850881e-01 6.491783e-01
5.983611e-01 5.844066e-01 6.491783e-01
6.016389e-01 5.844066e-01 6.491783e-01
6.048452e-01 5.850881e-01 6.491783e-01
6.078396e-01 5.864214e-01 6.491783e-01
6.104915e-01 5.883480e-01 6.491783e-01
6.126848e-01 5.907840e-01 6.491783e-01
6.143237e-01 5.936227e-01 6.491783e-01
6.153366e-01 5.967401e-01 6.491783e-01
6.156793e-01 6.000000e-01 6.491783e-01
6.311868e-01 6.000000e-01 6.467221e-01
6.305052e-01 6.064841e-01 6.467221e-01
6.284905e-01 6.126848e-01 6.467221e-01
6.252306e-01 6.183311e-01 6.467221e-01
6.208680e-01 6.231763e-01 6.467221e-01
6.155934e-01 6.270085e-01 6.467221e-01
6.096372e-01 6.296604e-01 6.467221e-01
6.032599e-01 6.310159e-01 6.467221e-01
5.967401e-01 6.310159e-01 6.467221e-01
5.903628e-01 6.296604e-01 6.467221e-01
5.844066e-01 6.270085e-01 6.467221e-01
5.791320e-01 6.231763e-01 6.467221e-01
5.747694e-01 6.183311e-01 6.467221e-01
5.715095e-01 6.126848e-01 6.467221e-01
5.694948e-01 6.064841e-01 6.467221e-01
5.688132e-01 6.000000e-01 6.467221e-01
5.694948e-01 5.935159e-01 6.467221e-01
5.715095e-01 5.873152e-01 6.467221e-01
5.747694e-01 5.816689e-01 6.467221e-01
5.791320e-01 5.768237e-01 6.467221e-01
5.844066e-01 5.729915e-01 6.467221e-01
5.903628e-01 5.703396e-01 6.467221e-01
5.967401e-01 5.689841e-01 6.467221e-01
6.032599e-01 5.689841e-01 6.467221e-01
6.096372e-01 5.703396e-01 6.467221e-01
6.155934e-01 5.729915e-01 6.467221e-01
6.208680e-01 5.768237e-01 6.467221e-01
6.252306e-01 5.816689e-01 6.467221e-01
6.284905e-01 5.873152e-01 6.467221e-01
6.305052e-01 5.935159e-01 6.467221e-01
6.311868e-01 6.000000e-01 6.467221e-01
6.463525e-01 6.000000e-01 6.426585e-01
6.453396e-01 6.096372e-01 6.426585e-01
6.423452e-01 6.188533e-01 6.426585e-01
6.375000e-01 6.272453e-01 6.426585e-01
6.310159e-01 6.344467e-01 6.426585e-01
6.231763e-01 6.401425e-01 6.426585e-01
6.143237e-01 6.440839e-01 6.426585e-01
6.048452e-01 6.460986e-01 6.426585e-01
5.951548e-01 6.460986e-01 6.426585e-01
5.856763e-01 6.440839e-01 6.426585e-01
5.768237e-01 6.401425e-01 6.426585e-01
5.689841e-01 6.344467e-01 6.426585e-01
5.625000e-01 6.272453e-01 6.426585e-01
5.576548e-01 6.188533e-01 6.426585e-01
5.546604e-01 6.096372e-01 6.426585e-01
5.536475e-01 6.000000e-01 6.426585e-01
5.546604e-01 5.903628e-01 6.426585e-01
5.576548e-01 5.811467e-01 6.426585e-01
5.625000e-01 5.727547e-01 6.426585e-01
5.689841e-01 5.655533e-01 6.426585e-01
5.768237e-01 5.598575e-01 6.426585e-01
5.856763e-01 5.559161e-01 6.426585e-01
5.951548e-01 5.539014e-01 6.426585e-01
6.048452e-01 5.539014e-01 6.426585e-01
6.143237e-01 5.559161e-01 6.426585e-01
6.231763e-01 5.598575e-01 6.426585e-01
6.310159e-01 5.655533e-01 6.426585e-01
6.375000e-01 5.727547e-01 6.426585e-01
6.423452e-01 5.811467e-01 6.426585e-01
6.453396e-01 5.903628e-01 6.426585e-01
6.463525e-01 6.000000e-01 6.426585e-01
6.610105e-01 6.000000e-01 6.370318e-01
6.596773e-01 6.126848e-01 6.370318e-01
6.557359e-01 6.248152e-01 6.370318e-01
6.493585e-01 6.358611e-01 6.370318e-01
6.408240e-01 6.453396e-01 6.370318e-01
6.305052e-01 6.528366e-01 6.370318e-01
6.188533e-01 6.580244e-01 6.370318e-01
6.063773e-01 6.606763e-01 6.370318e-01
5.936227e-01 6.606763e-01 6.370318e-01
5.811467e-01 6.580244e-01 6.370318e-01
5.694948e-01 6.528366e-01 6.370318e-01
5.591760e-01 6.453396e-01 6.370318e-01
5.506415e-01 6.358611e-01 6.370318e-01
5.442641e-01 6.248152e-01 6.370318e-01
5.403227e-01 6.126848e-01 6.370318e-01
5.389895e-01 6.000000e-01 6.370318e-01
5.403227e-01 5.873152e-01 6.370318e-01
5.442641e-01 5.751848e-01 6.370318e-01
5.506415e-01 5.641389e-01 6.370318e-01
5.591760e-01 5.546604e-01 6.370318e-01
5.694948e-01 5.471634e-01 6.370318e-01
5.811467e-01 5.419756e-01 6.370318e-01
5.936227e-01 5.393237e-01 6.370318e-01
6.063773e-01 5.393237e-01 6.370318e-01
6.188533e-01 5.419756e-01 6.370318e-01
6.305052e-01 5.471634e-01 6.370318e-01
6.408240e-01 5.546604e-01 6.370318e-01
6.493585e-01 5.641389e-01 6.370318e-01
6.557359e-01 5.751848e-01 6.370318e-01
6.596773e-01 5.873152e-01 6.370318e-01
6.610105e-01 6.000000e-01 6.370318e-01
6.750000e-01 6.000000e-01 6.299038e-01
6.733611e-01 6.155934e-01 6.299038e-01
6.685159e-01 6.305052e-01 6.299038e-01
6.606763e-01 6.440839e-01 6.299038e-01
6.501848e-01 6.557359e-01 6.299038e-01
6.375000e-01 6.649519e-01 6.299038e-01
6.231763e-01 6.713292e-01 6.299038e-01
6.078396e-01 6.745891e-01 6.299038e-01
5.921604e-01 6.745891e-01 6.299038e-01
5.768237e-01 6.713292e-01 6.299038e-01
5.625000e-01 6.649519e-01 6.299038e-01
5.498152e-01 6.557359e-01 6.299038e-01
5.393237e-01 6.440839e-01 6.299038e-01
5.314841e-01 6.305052e-01 6.299038e-01
5.266389e-01 6.155934e-01 6.299038e-01
5.250000e-01 6.000000e-01 6.299038e-01
5.266389e-01 5.844066e-01 6.299038e-01
5.314841e-01 5.694948e-01 6.299038e-01
5.393237e-01 5.559161e-01 6.299038e-01
5.498152e-01 5.442641e-01 6.299038e-01
5.625000e-01 5.350481e-01 6.299038e-01
5.768237e-01 5.286708e-01 6.299038e-01
5.921604e-01 5.254109e-01 6.299038e-01
6.078396e-01 5.254109e-01 6.299038e-01
6.231763e-01 5.286708e-01 6.299038e-01
6.375000e-01 5.350481e-01 6.299038e-01
6.501848e-01 5.442641e-01 6.299038e-01
6.606763e-01 5.559161e-01 6.299038e-01
6.685159e-01 5.694948e-01 6.299038e-01
6.733611e-01 5.844066e-01 6.299038e-01
6.750000e-01 6.000000e-01 6.299038e-01
6.881678e-01 6.000000e-01 6.213525e-01
6.862411e-01 6.183311e-01 6.213525e-01
6.805453e-01 6.358611e-01 6.213525e-01
6.713292e-01 6.518237e-01 6.213525e-01
6.589958e-01 6.655214e-01 6.213525e-01
6.440839e-01 6.763555e-01 6.213525e-01
6.272453e-01 6.838525e-01 6.213525e-01
6.092160e-01 6.876848e-01 6.213525e-01
5.907840e-01 6.876848e-01 6.213525e-01
5.727547e-01 6.838525e-01 6.213525e-01
5.559161e-01 6.763555e-01 6.213525e-01
5.410042e-01 6.655214e-01 6.213525e-01
5.286708e-01 6.518237e-01 6.213525e-01
5.194547e-01 6.358611e-01 6.213525e-01
5.137589e-01 6.183311e-01 6.213525e-01
5.118322e-01 6.000000e-01 6.213525e-01
5.137589e-01 5.816689e-01 6.213525e-01
5.194547e-01 5.641389e-01 6.213525e-01
5.286708e-01 5.481763e-01 6.213525e-01
5.410042e-01 5.344786e-01 6.213525e-01
5.559161e-01 5.236445e-01 6.213525e-01
5.727547e-01 5.161475e-01 6.213525e-01
5.907840e-01 5.123152e-01 6.213525e-01
6.092160e-01 5.123152e-01 6.213525e-01
6.272453e-01 5.161475e-01 6.213525e-01
6.440839e-01 5.236445e-01 6.213525e-01
6.589958e-01 5.344786e-01 6.213525e-01
6.713292e-01 5.481763e-01 6.213525e-01
6.805453e-01 5.641389e-01 6.213525e-01
6.862411e-01 5.816689e-01 6.213525e-01
6.881678e-01 6.000000e-01 6.213525e-01
7.003696e-01 6.000000e-01 6.114717e-01
6.981763e-01 6.208680e-01 6.114717e-01
6.916922e-01 6.408240e-01 6.114717e-01
6.812007e-01 6.589958e-01 6.114717e-01
6.671604e-01 6.745891e-01 6.114717e-01
6.501848e-01 6.869226e-01 6.114717e-01
6.310159e-01 6.954572e-01 6.114717e-01
6.104915e-01 6.998198e-01 6.114717e-01
5.895085e-01 6.998198e-01 6.114717e-01
5.689841e-01 6.954572e-01 6.114717e-01
5.498152e-01 6.869226e-01 6.114717e-01
5.328396e-01 6.745891e-01 6.114717e-01
5.187993e-01 6.589958e-01 6.114717e-01
5.083078e-01 6.408240e-01 6.114717e-01
5.018237e-01 6.208680e-01 6.114717e-01
4.996304e-01 6.000000e-01 6.114717e-01
5.018237e-01 5.791320e-01 6.114717e-01
5.083078e-01 5.591760e-01 6.114717e-01
5.187993e-01 5.410042e-01 6.114717e-01
5.328396e-01 5.254109e-01 6.114717e-01
5.498152e-01 5.130774e-01 6.114717e-01
5.689841e-01 5.045428e-01 6.114717e-01
5.895085e-01 5.001802e-01 6.114717e-01
6.104915e-01 5.001802e-01 6.114717e-01
6.310159e-01 5.045428e-01 6.114717e-01
6.501848e-01 5.130774e-01 6.114717e-01
6.671604e-01 5.254109e-01 6.114717e-01
6.812007e-01 5.410042e-01 6.114717e-01
6.916922e-01 5.591760e-01 6.114717e-01
6.981763e-01 5.791320e-01 6.114717e-01
7.003696e-01 6.000000e-01 6.114717e-01
7.114717e-01 6.000000e-01 6.003696e-01
7.090358e-01 6.231763e-01 6.003696e-01
7.018345e-01 6.453396e-01 6.003696e-01
6.901825e-01 6.655214e-01 6.003696e-01
6.745891e-01 6.828396e-01 6.003696e-01
6.557359e-01 6.965373e-01 6.003696e-01
6.344467e-01 7.060159e-01 6.003696e-01
6.116520e-01 7.108611e-01 6.003696e-01
5.883480e-01 7.108611e-01 6.003696e-01
5.655533e-01 7.060159e-01 6.003696e-01
5.442641e-01 6.965373e-01 6.003696e-01
5.254109e-01 6.828396e-01 6.003696e-01
5.098175e-01 6.655214e-01 6.003696e-01
4.981655e-01 6.453396e-01 6.003696e-01
4.909642e-01 6.231763e-01 6.003696e-01
4.885283e-01 6.000000e-01 6.003696e-01
4.909642e-01 5.768237e-01 6.003696e-01
4.981655e-01 5.546604e-01 6.003696e-01
5.098175e-01 5.344786e-01 6.003696e-01
5.254109e-01 5.171604e-01 6.003696e-01
5.442641e-01 5.034627e-01 6.003696e-01
5.655533e-01 4.939841e-01 6.003696e-01
5.883480e-01 4.891389e-01 6.003696e-01
6.116520e-01 4.891389e-01 6.003696e-01
6.344467e-01 4.939841e-01 6.003696e-01
6.557359e-01 5.034627e-01 6.003696e-01
6.745891e-01 5.171604e-01 6.003696e-01
6.901825e-01 5.344786e-01 6.003696e-01
7.018345e-01 5.546604e-01 6.003696e-01
7.090358e-01 5.768237e-01 6.003696e-01
7.114717e-01 6.000000e-01 6.003696e-01
7.213525e-01 6.000000e-01 5.881678e-01
7.187007e-01 6.252306e-01 5.881678e-01
7.108611e-01 6.493585e-01 5.881678e-01
6.981763e-01 6.713292e-01 5.881678e-01
6.812007e-01 6.901825e-01 5.881678e-01
6.606763e-01 7.050944e-01 5.881678e-01
6.375000e-01 7.154131e-01 5.881678e-01
6.126848e-01 7.206878e-01 5.881678e-01
5.873152e-01 7.206878e-01 5.881678e-01
5.625000e-01 7.154131e-01 5.881678e-01
5.393237e-01 7.050944e-01 5.881678e-01
5.187993e-01 6.901825e-01 5.881678e-01
5.018237e-01 6.713292e-01 5.881678e-01
4.891389e-01 6.493585e-01 5.881678e-01
4.812993e-01 6.252306e-01 5.881678e-01
4.786475e-01 6.000000e-01 5.881678e-01
4.812993e-01 5.747694e-01 5.881678e-01
4.891389e-01 5.506415e-01 5.881678e-01
5.018237e-01 5.286708e-01 5.881678e-01
5.187993e-01 5.098175e-01 5.881678e-01
5.393237e-01 4.949056e-01 5.881678e-01
5.625000e-01 4.845869e-01 5.881678e-01
5.873152e-01 4.793122e-01 5.881678e-01
6.126848e-01 4.793122e-01 5.881678e-01
6.375000e-01 4.845869e-01 5.881678e-01
6.606763e-01 4.949056e-01 5.881678e-01
6.812007e-01 5.098175e-01 5.881678e-01
6.981763e-01 5.286708e-01 5.881678e-01
7.108611e-01 5.506415e-01 5.881678e-01
7.187007e-01 5.747694e-01 5.881678e-01
7.213525e-01 6.000000e-01 5.881678e-01
7.299038e-01 6.000000e-01 5.750000e-01
7.270651e-01 6.270085e-01 5.750000e-01
7.186730e-01 6.528366e-01 5.750000e-01
7.050944e-01 6.763555e-01 5.750000e-01
6.869226e-01 6.965373e-01 5.750000e-01
6.649519e-01 7.125000e-01 5.750000e-01
6.401425e-01 7.235459e-01 5.750000e-01
6.135786e-01 7.291922e-01 5.750000e-01
5.864214e-01 7.291922e-01 5.750000e-01
5.598575e-01 7.235459e-01 5.750000e-01
5.350481e-01 7.125000e-01 5.750000e-01
5.130774e-01 6.965373e-01 5.750000e-01
4.949056e-01 6.763555e-01 5.750000e-01
4.813270e-01 6.528366e-01 5.750000e-01
4.729349e-01 6.270085e-01 5.750000e-01
4.700962e-01 6.000000e-01 5.750000e-01
4.729349e-01 5.729915e-01 5.750000e-01
4.813270e-01 5.471634e-01 5.750000e-01
4.949056e-01 5.236445e-01 5.750000e-01
5.130774e-01 5.034627e-01 5.750000e-01
5.350481e-01 4.875000e-01 5.750000e-01
5.598575e-01 4.764541e-01 5.750000e-01
5.864214e-01 4.708078e-01 5.750000e-01
6.135786e-01 4.708078e-01 5.750000e-01
6.401425e-01 4.764541e-01 5.750000e-01
6.649519e-01 4.875000e-01 5.750000e-01
6.869226e-01 5.034627e-01 5.750000e-01
7.050944e-01 5.236445e-01 5.750000e-01
7.186730e-01 5.471634e-01 5.750000e-01
7.270651e-01 5.729915e-01 5.750000e-01
7.299038e-01 6.000000e-01 5.750000e-01
7.370318e-01 6.000000e-01 5.610105e-01
7.340373e-01 6.284905e-01 5.610105e-01
7.251848e-01 6.557359e-01 5.610105e-01
7.108611e-01 6.805453e-01 5.610105e-01
6.916922e-01 7.018345e-01 5.610105e-01
6.685159e-01 7.186730e-01 5.610105e-01
6.423452e-01 7.303250e-01 5.610105e-01
6.143237e-01 7.362811e-01 5.610105e-01
5.856763e-01 7.362811e-01 5.610105e-01
5.576548e-01 7.303250e-01 5.610105e-01
5.314841e-01 7.186730e-01 5.610105e-01
5.083078e-01 7.018345e-01 5.610105e-01
4.891389e-01 6.805453e-01 5.610105e-01
4.748152e-01 6.557359e-01 5.610105e-01
4.659627e-01 6.284905e-01 5.610105e-01
4.629682e-01 6.000000e-01 5.610105e-01
4.659627e-01 5.715095e-01 5.610105e-01
4.748152e-01 5.442641e-01 5.610105e-01
4.891389e-01 5.194547e-01 5.610105e-01
5.083078e-01 4.981655e-01 5.610105e-01
5.314841e-01 4.813270e-01 5.610105e-01
5.576548e-01 4.696750e-01 5.610105e-01
5.856763e-01 4.637189e-01 5.610105e-01
6.143237e-01 4.637189e-01 5.610105e-01
6.423452e-01 4.696750e-01 5.610105e-01
6.685159e-01 4.813270e-01 5.610105e-01
6.916922e-01 4.981655e-01 5.610105e-01
7.108611e-01 5.194547e-01 5.610105e-01
7.251848e-01 5.442641e-01 5.610105e-01
7.340373e-01 5.715095e-01 5.610105e-01
7.370318e-01 6.000000e-01 5.610105e-01
7.426585e-01 6.000000e-01 5.463525e-01
7.395410e-01 6.296604e-01 5.463525e-01
7.303250e-01 6.580244e-01 5.463525e-01
7.154131e-01 6.838525e-01 5.463525e-01
6.954572e-01 7.060159e-01 5.463525e-01
6.713292e-01 7.235459e-01 5.463525e-01
6.440839e-01 7.356763e-01 5.463525e-01
6.149119e-01 7.418770e-01 5.463525e-01
5.850881e-01 7.418770e-01 5.463525e-01
5.559161e-01 7.356763e-01 5.463525e-01
5.286708e-01 7.235459e-01 5.463525e-01
5.045428e-01 7.060159e-01 5.463525e-01
4.845869e-01 6.838525e-01 5.463525e-01
4.696750e-01 6.580244e-01 5.463525e-01
4.604590e-01 6.296604e-01 5.463525e-01
4.573415e-01 6.000000e-01 5.463525e-01
4.604590e-01 5.703396e-01 5.463525e-01
4.696750e-01 5.419756e-01 5.463525e-01
4.845869e-01 5.161475e-01 5.463525e-01
5.045428e-01 4.939841e-01 5.463525e-01
5.286708e-01 4.764541e-01 5.463525e-01
5.559161e-01 4.643237e-01 5.463525e-01
5.850881e-01 4.581230e-01 5.463525e-01
6.149119e-01 4.581230e-01 5.463525e-01
6.440839e-01 4.643237e-01 5.463525e-01
6.713292e-01 4.764541e-01 5.463525e-01
6.954572e-01 4.939841e-01 5.463525e-01
7.154131e-01 5.161475e-01 5.463525e-01
7.303250e-01 5.419756e-01 5.463525e-01
7.395410e-01 5.703396e-01 5.463525e-01
7.426585e-01 6.000000e-01 5.463525e-01
7.467221e-01 6.000000e-01 5.311868e-01
7.435159e-01 6.305052e-01 5.311868e-01
7.340373e-01 6.596773e-01 5.311868e-01
7.187007e-01 6.862411e-01 5.311868e-01
6.981763e-01 7.090358e-01 5.311868e-01
6.733611e-01 7.270651e-01 5.311868e-01
6.453396e-01 7.395410e-01 5.311868e-01
6.153366e-01 7.459184e-01 5.311868e-01
5.846634e-01 7.459184e-01 5.311868e-01
5.546604e-01 7.395410e-01 5.311868e-01
5.266389e-01 7.270651e-01 5.311868e-01
5.018237e-01 7.090358e-01 5.311868e-01
4.812993e-01 6.862411e-01 5.311868e-01
4.659627e-01 6.596773e-01 5.311868e-01
4.564841e-01 6.305052e-01 5.311868e-01
4.532779e-01 6.000000e-01 5.311868e-01
4.564841e-01 5.694948e-01 5.311868e-01
4.659627e-01 5.403227e-01 5.311868e-01
4.812993e-01 5.137589e-01 5.311868e-01
5.018237e-01 4.909642e-01 5.311868e-01
5.266389e-01 4.729349e-01 5.311868e-01
5.546604e-01 4.604590e-01 5.311868e-01
5.846634e-01 4.540816e-01 5.311868e-01
6.153366e-01 4.540816e-01 5.311868e-01
6.453396e-01 4.604590e-01 5.311868e-01
6.733611e-01 4.729349e-01 5.311868e-01
6.981763e-01 4.909642e-01 5.311868e-01
7.187007e-01 5.137589e-01 5.311868e-01
7.340373e-01 5.403227e-01 5.311868e-01
7.435159e-01 5.694948e-01 5.311868e-01
7.467221e-01 6.000000e-01 5.311868e-01
7.491783e-01 6.000000e-01 5.156793e-01
7.459184e-01 6.310159e-01 5.156793e-01
7.362811e-01 6.606763e-01 5.156793e-01
7.206878e-01 6.876848e-01 5.156793e-01
6.998198e-01 7.108611e-01 5.156793e-01
6.745891e-01 7.291922e-01 5.156793e-01
6.460986e-01 7.418770e-01 5.156793e-01
6.155934e-01 7.483611e-01 5.156793e-01
5.844066e-01 7.483611e-01 5.156793e-01
5.539014e-01 7.418770e-01 5.156793e-01
5.254109e-01 7.291922e-01 5.156793e-01
5.001802e-01 7.108611e-01 5.156793e-01
4.793122e-01 6.876848e-01 5.156793e-01
4.637189e-01 6.606763e-01 5.156793e-01
4.540816e-01 6.310159e-01 5.156793e-01
4.508217e-01 6.000000e-01 5.156793e-01
4.540816e-01 5.689841e-01 5.156793e-01
4.637189e-01 5.393237e-01 5.156793e-01
4.793122e-01 5.123152e-01 5.156793e-01
5.001802e-01 4.891389e-01 5.156793e-01
5.254109e-01 4.708078e-01 5.156793e-01
5.539014e-01 4.581230e-01 5.156793e-01
5.844066e-01 4.516389e-01 5.156793e-01
6.155934e-01 4.516389e-01 5.156793e-01
6.460986e-01 4.581230e-01 5.156793e-01
6.745891e-01 4.708078e-01 5.156793e-01
6.998198e-01 4.891389e-01 5.156793e-01
7.206878e-01 5.123152e-01 5.156793e-01
7.362811e-01 5.393237e-01 5.156793e-01
7.459184e-01 5.689841e-01 5.156793e-01
7.491783e-01 6.000000e-01 5.156793e-01
7.500000e-01 6.000000e-01 5.000000e-01
7.467221e-01 6.311868e-01 5.000000e-01
7.370318e-01 6.610105e-01 5.000000e-01
7.213525e-01 6.881678e-01 5.000000e-01
7.003696e-01 7.114717e-01 5.000000e-01
6.750000e-01 7.299038e-01 5.000000e-01
6.463525e-01 7.426585e-01 5.000000e-01
6.156793e-01 7.491783e-01 5.000000e-01
5.843207e-01 7.491783e-01 5.000000e-01
5.536475e-01 7.426585e-01 5.000000e-01
5.250000e-01 7.299038e-01 5.000000e-01
4.996304e-01 7.114717e-01 5.000000e-01
4.786475e-01 6.881678e-01 5.000000e-01
4.629682e-01 6.610105e-01 5.000000e-01
4.532779e-01 6.311868e-01 5.000000e-01
4.500000e-01 6.000000e-01 5.000000e-01
4.532779e-01 5.688132e-01 5.000000e-01
4.629682e-01 5.389895e-01 5.000000e-01
4.786475e-01 5.118322e-01 5.000000e-01
4.996304e-01 4.885283e-01 5.000000e-01
5.250000e-01 4.700962e-01 5.000000e-01
5.536475e-01 4.573415e-01 5.000000e-01
5.843207e-01 4.508217e-01 5.000000e-01
6.156793e-01 4.508217e-01 5.000000e-01
6.463525e-01 4.573415e-01 5.000000e-01
6.750000e-01 4.700962e-01 5.000000e-01
7.003696e-01 4.885283e-01 5.000000e-01
7.213525e-01 5.118322e-01 5.000000e-01
7.370318e-01 5.389895e-01 5.000000e-01
7.467221e-01 5.688132e-01 5.000000e-01
7.500000e-01 6.000000e-01 5.000000e-01
7.491783e-01 6.000000e-01 4.843207e-01
7.459184e-01 6.310159e-01 4.843207e-01
7.362811e-01 6.606763e-01 4.843207e-01
7.206878e-01 6.876848e-01 4.843207e-01
6.998198e-01 7.108611e-01 4.843207e-01
6.745891e-01 7.291922e-01 4.843207e-01
6.460986e-01 7.418770e-01 4.843207e-01
6.155934e-01 7.483611e-01 4.843207e-01
5.844066e-01 7.483611e-01 4.843207e-01
5.539014e-01 7.418770e-01 4.843207e-01
5.254109e-01 7.291922e-01 4.843207e-01
5.001802e-01 7.108611e-01 4.843207e-01
4.793122e-01 6.876848e-01 4.843207e-01
4.637189e-01 6.606763e-01 4.843207e-01
4.540816e-01 6.310159e-01 4.843207e-01
4.508217e-01 6.000000e-01 4.843207e-01
4.540816e-01 5.689841e-01 4.843207e-01
4.637189e-01 5.393237e-01 4.843207e-01
4.793122e-01 5.123152e-01 4.843207e-01
5.001802e-01 4.891389e-01 4.843207e-01
5.254109e-01 4.708078e-01 4.843207e-01
5.539014e-01 4.581230e-01 4.843207e-01
5.844066e-01 4.516389e-01 4.843207e-01
6.155934e-01 4.516389e-01 4.843207e-01
6.460986e-01 4.581230e-01 4.843207e-01
6.745891e-01 4.708078e-01 4.843207e-01
6.998198e-01 4.891389e-01 4.843207e-01
7.206878e-01 5.123152e-01 4.843207e-01
7.362811e-01 5.393237e-01 4.843207e-01
7.459184e-01 5.689841e-01 4.843207e-01
7.491783e-01 6.000000e-01 4.843207e-01
7.467221e-01 6.000000e-01 4.688132e-01
7.435159e-01 6.305052e-01 4.688132e-01
7.340373e-01 6.596773e-01 4.688132e-01
7.187007e-01 6.862411e-01 4.688132e-01
6.981763e-01 7.090358e-01 4.688132e-01
6.733611e-01 7.270651e-01 4.688132e-01
6.453396e-01 7.395410e-01 4.688132e-01
6.153366e-01 7.459184e-01 4.688132e-01
5.846634e-01 7.459184e-01 4.688132e-01
5.546604e-01 7.395410e-01 4.688132e-01
5.266389e-01 7.270651e-01 4.688132e-01
5.018237e-01 7.090358e-01 4.688132e-01
4.812993e-01 6.862411e-01 4.688132e-01
4.659627e-01 6.596773e-01 4.688132e-01
4.564841e-01 6.305052e-01 4.688132e-01
4.532779e-01 6.000000e-01 4.688132e-01
4.564841e-01 5.694948e-01 4.688132e-01
4.659627e-01 5.403227e-01 4.688132e-01
4.812993e-01 5.137589e-01 4.688132e-01
5.018237e-01 4.909642e-01 4.688132e-01
5.266389e-01 4.729349e-01 4.688132e-01
5.546604e-01 4.604590e-01 4.688132e-01
5.846634e-01 4.540816e-01 4.688132e-01
6.153366e-01 4.540816e-01 4.688132e-01
6.453396e-01 4.604590e-01 4.688132e-01
6.733611e-01 4.729349e-01 4.688132e-01
6.981763e-01 4.909642e-01 4.688132e-01
7.187007e-01 5.137589e-01 4.688132e-01
7.340373e-01 5.403227e-01 4.688132e-01
7.435159e-01 5.694948e-01 4.688132e-01
7.467221e-01 6.000000e-01 4.688132e-01
7.426585e-01 6.000000e-01 4.536475e-01
7.395410e-01 6.296604e-01 4.536475e-01
7.303250e-01 6.580244e-01 4.536475e-01
7.154131e-01 6.838525e-01 4.536475e-01
6.954572e-01 7.060159e-01 4.536475e-01
6.713292e-01 7.235459e-01 4.536475e-01
6.440839e-01 7.356763e-01 4.536475e-01
6.149119e-01 7.418770e-01 4.536475e-01
5.850881e-01 7.418770e-01 4.536475e-01
5.559161e-01 7.356763e-01 4.536475e-01
5.286708e-01 7.235459e-01 4.536475e-01
5.045428e-01 7.060159e-01 4.536475e-01
4.845869e-01 6.838525e-01 4.536475e-01
4.696750e-01 6.580244e-01 4.536475e-01
4.604590e-01 6.296604e-01 4.536475e-01
4.573415e-01 6.000000e-01 4.536475e-01
4.604590e-01 5.703396e-01 4.536475e-01
4.696750e-01 5.419756e-01 4.536475e-01
4.845869e-01 5.161475e-01 4.536475e-01
5.045428e-01 4.939841e-01 4.536475e-01
5.286708e-01 4.764541e-01 4.536475e-01
5.559161e-01 4.643237e-01 4.536475e-01
5.850881e-01 4.581230e-01 4.536475e-01
6.149119e-01 4.581230e-01 4.536475e-01
6.440839e-01 4.643237e-01 4.536475e-01
6.713292e-01 4.764541e-01 4.536475e-01
6.954572e-01 4.939841e-01 4.536475e-01
7.154131e-01 5.161475e-01 4.536475e-01
7.303250e-01 5.419756e-01 4.536475e-01
7.395410e-01 5.703396e-01 4.536475e-01
7.426585e-01 6.000000e-01 4.536475e-01
7.370318e-01 6.000000e-01 4.389895e-01
7.340373e-01 6.284905e-01 4.389895e-01
7.251848e-01 6.557359e-01 4.389895e-01
7.108611e-01 6.805453e-01 4.389895e-01
6.916922e-01 7.018345e-01 4.389895e-01
6.685159e-01 7.186730e-01 4.389895e-01
6.423452e-01 7.303250e-01 4.389895e-01
6.143237e-01 7.362811e-01 4.389895e-01
5.856763e-01 7.362811e-01 4.389895e-01
5.576548e-01 7.303250e-01 4.389895e-01
5.314841e-01 7.186730e-01 4.389895e-01
5.083078e-01 7.018345e-01 4.389895e-01
4.891389e-01 6.805453e-01 4.389895e-01
4.748152e-01 6.557359e-01 4.389895e-01
4.659627e-01 6.284905e-01 4.389895e-01
4.629682e-01 6.000000e-01 4.389895e-01
4.659627e-01 5.715095e-01 4.389895e-01
4.748152e-01 5.442641e-01 4.389895e-01
4.891389e-01 5.194547e-01 4.389895e-01
5.083078e-01 4.981655e-01 4.389895e-01
5.314841e-01 4.813270e-01 4.389895e-01
5.576548e-01 4.696750e-01 4.389895e-01
5.856763e-01 4.637189e-01 4.389895e-01
6.143237e-01 4.637189e-01 4.389895e-01
6.423452e-01 4.696750e-01 4.389895e-01
6.685159e-01 4.813270e-01 4.389895e-01
6.916922e-01 4.981655e-01 4.389895e-01
7.108611e-01 5.194547e-01 4.389895e-01
7.251848e-01 5.442641e-01 4.389895e-01
7.340373e-01 5.715095e-01 4.389895e-01
7.370318e-01 6.000000e-01 4.389895e-01
7.299038e-01 6.000000e-01 4.250000e-01
7.270651e-01 6.270085e-01 4.250000e-01
7.186730e-01 6.528366e-01 4.250000e-01
7.050944e-01 6.763555e-01 4.250000e-01
6.869226e-01 6.965373e-01 4.250000e-01
6.649519e-01 7.125000e-01 4.250000e-01
6.401425e-01 7.235459e-01 4.250000e-01
6.135786e-01 7.291922e-01 4.250000e-01
5.864214e-01 7.291922e-01 4.250000e-01
5.598575e-01 7.235459e-01 4.250000e-01
5.350481e-01 7.125000e-01 4.250000e-01
5.130774e-01 6.965373e-01 4.250000e-01
4.949056e-01 6.763555e-01 4.250000e-01
4.813270e-01 6.528366e-01 4.250000e-01
4.729349e-01 6.270085e-01 4.250000e-01
4.700962e-01 6.000000e-01 4.250000e-01
4.729349e-01 5.729915e-01 4.250000e-01
4.813270e-01 5.471634e-01 4.250000e-01
4.949056e-01 5.236445e-01 4.250000e-01
5.130774e-01 5.034627e-01 4.250000e-01
5.350481e-01 4.875000e-01 4.250000e-01
5.598575e-01 4.764541e-01 4.250000e-01
5.864214e-01 4.708078e-01 4.250000e-01
6.135786e-01 4.708078e-01 4.250000e-01
6.401425e-01 4.764541e-01 4.250000e-01
6.649519e-01 4.875000e-01 4.250000e-01
6.869226e-01 5.034627e-01 4.250000e-01
7.050944e-01 5.236445e-01 4.250000e-01
7.186730e-01 5.471634e-01 4.250000e-01
7.270651e-01 5.729915e-01 4.250000e-01
7.299038e-01 6.000000e-01 4.250000e-01
7.213525e-01 6.000000e-01 4.118322e-01
7.187007e-01 6.252306e-01 4.118322e-01
7.108611e-01 6.493585e-01 4.118322e-01
6.981763e-01 6.713292e-01 4.118322e-01
6.812007e-01 6.901825e-01 4.118322e-01
6.606763e-01 7.050944e-01 4.118322e-01
6.375000e-01 7.154131e-01 4.118322e-01
6.126848e-01 7.206878e-01 4.118322e-01
5.873152e-01 7.206878e-01 4.118322e-01
5.625000e-01 7.154131e-01 4.118322e-01
5.393237e-01 7.050944e-01 4.118322e-01
5.187993e-01 6.901825e-01 4.118322e-01
5.018237e-01 6.713292e-01 4.118322e-01
4.891389e-01 6.493585e-01 4.118322e-01
4.812993e-01 6.252306e-01 4.118322e-01
4.786475e-01 6.000000e-01 4.118322e-01
4.812993e-01 5.747694e-01 4.118322e-01
4.891389e-01 5.506415e-01 4.118322e-01
5.018237e-01 5.286708e-01 4.118322e-01
5.187993e-01 5.098175e-01 4.118322e-01
5.393237e-01 4.949056e-01 4.118322e-01
5.625000e-01 4.845869e-01 4.118322e-01
5.873152e-01 4.793122e-01 4.118322e-01
6.126848e-01 4.793122e-01 4.118322e-01
6.375000e-01 4.845869e-01 4.118322e-01
6.606763e-01 4.949056e-01 4.118322e-01
6.812007e-01 5.098175e-01 4.118322e-01
6.981763e-01 5.286708e-01 4.118322e-01
7.108611e-01 5.506415e-01 4.118322e-01
7.187007e-01 5.747694e-01 4.118322e-01
7.213525e-01 6.000000e-01 4.118322e-01
7.114717e-01 6.000000e-01 3.996304e-01
7.090358e-01 6.231763e-01 3.996304e-01
7.018345e-01 6.453396e-01 3.996304e-01
6.901825e-01 6.655214e-01 3.996304e-01
6.745891e-01 6.828396e-01 3.996304e-01
6.557359e-01 6.965373e-01 3.996304e-01
6.344467e-01 7.060159e-01 3.996304e-01
6.116520e-01 7.108611e-01 3.996304e-01
5.883480e-01 7.108611e-01 3.996304e-01
5.655533e-01 7.060159e-01 3.996304e-01
5.442641e-01 6.965373e-01 3.996304e-01
5.254109e-01 6.828396e-01 3.996304e-01
5.098175e-01 6.655214e-01 3.996304e-01
4.981655e-01 6.453396e-01 3.996304e-01
4.909642e-01 6.231763e-01 3.996304e-01
4.885283e-01 6.000000e-01 3.996304e-01
4.909642e-01 5.768237e-01 3.996304e-01
4.981655e-01 5.546604e-01 3.996304e-01
5.098175e-01 5.344786e-01 3.996304e-01
5.254109e-01 5.171604e-01 3.996304e-01
5.442641e-01 5.034627e-01 3.996304e-01
5.655533e-01 4.939841e-01 3.996304e-01
5.883480e-01 4.891389e-01 3.996304e-01
6.116520e-01 4.891389e-01 3.996304e-01
6.344467e-01 4.939841e-01 3.996304e-01
6.557359e-01 5.034627e-01 3.996304e-01
6.745891e-01 5.171604e-01 3.996304e-01
6.901825e-01 5.344786e-01 3.996304e-01
7.018345e-01 5.546604e-01 3.996304e-01
7.090358e-01 5.768237e-01 3.996304e-01
7.114717e-01 6.000000e-01 3.996304e-01
7.003696e-01 6.000000e-01 3.885283e-01
6.981763e-01 6.208680e-01 3.885283e-01
6.916922e-01 6.408240e-01 3.885283e-01
6.812007e-01 6.589958e-01 3.885283e-01
6.671604e-01 6.745891e-01 3.885283e-01
6.501848e-01 6.869226e-01 3.885283e-01
6.310159e-01 6.954572e-01 3.885283e-01
6.104915e-01 6.998198e-01 3.885283e-01
5.895085e-01 6.998198e-01 3.885283e-01
5.689841e-01 6.954572e-01 3.885283e-01
5.498152e-01 6.869226e-01 3.885283e-01
5.328396e-01 6.745891e-01 3.885283e-01
5.187993e-01 6.589958e-01 3.885283e-01
5.083078e-01 6.408240e-01 3.885283e-01
5.018237e-01 6.208680e-01 3.885283e-01
4.996304e-01 6.000000e-01 3.885283e-01
5.018237e-01 5.791320e-01 3.885283e-01
5.083078e-01 5.591760e-01 3.885283e-01
5.187993e-01 5.410042e-01 3.885283e-01
5.328396e-01 5.254109e-01 3.885283e-01
5.498152e-01 5.130774e-01 3.885283e-01
5.689841e-01 5.045428e-01 3.885283e-01
5.895085e-01 5.001802e-01 3.885283e-01
6.104915e-01 5.001802e-01 3.885283e-01
6.310159e-01 5.045428e-01 3.885283e-01
6.501848e-01 5.130774e-01 3.885283e-01
6.671604e-01 5.254109e-01 3.885283e-01
6.812007e-01 5.410042e-01 3.885283e-01
6.916922e-01 5.591760e-01 3.885283e-01
6.981763e-01 5.791320e-01 3.885283e-01
7.003696e-01 6.000000e-01 3.885283e-01
6.881678e-01 6.000000e-01 3.786475e-01
6.862411e-01 6.183311e-01 3.786475e-01
6.805453e-01 6.358611e-01 3.786475e-01
6.713292e-01 6.518237e-01 3.786475e-01
6.589958e-01 6.655214e-01 3.786475e-01
6.440839e-01 6.763555e-01 3.786475e-01
6.272453e-01 6.838525e-01 3.786475e-01
6.092160e-01 6.876848e-01 3.786475e-01
5.907840e-01 6.876848e-01 3.786475e-01
5.727547e-01 6.838525e-01 3.786475e-01
5.559161e-01 6.763555e-01 3.786475e-01
5.410042e-01 6.655214e-01 3.786475e-01
5.286708e-01 6.518237e-01 3.786475e-01
5.194547e-01 6.358611e-01 3.786475e-01
5.137589e-01 6.183311e-01 3.786475e-01
5.118322e-01 6.000000e-01 3.786475e-01
5.137589e-01 5.816689e-01 3.786475e-01
5.194547e-01 5.641389e-01 3.786475e-01
5.286708e-01 5.481763e-01 3.786475e-01
5.410042e-01 5.344786e-01 3.786475e-01
5.559161e-01 5.236445e-01 3.786475e-01
5.727547e-01 5.161475e-01 3.786475e-01
5.907840e-01 5.123152e-01 3.786475e-01
6.092160e-01 5.123152e-01 3.786475e-01
6.272453e-01 5.161475e-01 3.786475e-01
6.440839e-01 5.236445e-01 3.786475e-01
6.589958e-01 5.344786e-01 3.786475e-01
6.713292e-01 5.481763e-01 3.786475e-01
6.805453e-01 5.641389e-01 3.786475e-01
6.862411e-01 5.816689e-01 3.786475e-01
6.881678e-01 6.000000e-01 3.786475e-01
6.750000e-01 6.000000e-01 3.700962e-01
6.733611e-01 6.155934e-01 3.700962e-01
6.685159e-01 6.305052e-01 3.700962e-01
6.606763e-01 6.440839e-01 3.700962e-01
6.501848e-01 6.557359e-01 3.700962e-01
6.375000e-01 6.649519e-01 3.700962e-01
6.231763e-01 6.713292e-01 3.700962e-01
6.078396e-01 6.745891e-01 3.700962e-01
5.921604e-01 6.745891e-01 3.700962e-01
5.768237e-01 6.713292e-01 3.700962e-01
5.625000e-01 6.649519e-01 3.700962e-01
5.498152e-01 6.557359e-01 3.700962e-01
5.393237e-01 6.440839e-01 3.700962e-01
5.314841e-01 6.305052e-01 3.700962e-01
5.266389e-01 6.155934e-01 3.700962e-01
5.250000e-01 6.000000e-01 3.700962e-01
5.266389e-01 5.844066e-01 3.700962e-01
5.314841e-01 5.694948e-01 3.700962e-01
5.393237e-01 5.559161e-01 3.700962e-01
5.498152e-01 5.442641e-01 3.700962e-01
5.625000e-01 5.350481e-01 3.700962e-01
5.768237e-01 5.286708e-01 3.700962e-01
5.921604e-01 5.254109e-01 3.700962e-01
6.078396e-01 5.254109e-01 3.700962e-01
6.231763e-01 5.286708e-01 3.700962e-01
6.375000e-01 5.350481e-01 3.700962e-01
6.501848e-01 5.442641e-01 3.700962e-01
6.606763e-01 5.559161e-01 3.700962e-01
6.685159e-01 5.694948e-01 3.700962e-01
6.733611e-01 5.844066e-01 3.700962e-01
6.750000e-01 6.000000e-01 3.700962e-01
6.610105e-01 6.000000e-01 3.629682e-01
6.596773e-01 6.126848e-01 3.629682e-01
6.557359e-01 6.248152e-01 3.629682e-01
6.493585e-01 6.358611e-01 3.629682e-01
6.408240e-01 6.453396e-01 3.629682e-01
6.305052e-01 6.528366e-01 3.629682e-01
6.188533e-01 6.580244e-01 3.629682e-01
6.063773e-01 6.606763e-01 3.629682e-01
5.936227e-01 6.606763e-01 3.629682e-01
5.811467e-01 6.580244e-01 3.629682e-01
5.694948e-01 6.528366e-01 3.629682e-01
5.591760e-01 6.453396e-01 3.629682e-01
5.506415e-01 6.358611e-01 3.629682e-01
5.442641e-01 6.248152e-01 3.629682e-01
5.403227e-01 6.126848e-01 3.629682e-01
5.389895e-01 6.000000e-01 3.629682e-01
5.403227e-01 5.873152e-01 3.629682e-01
5.442641e-01 5.751848e-01 3.629682e-01
5.506415e-01 5.641389e-01 3.629682e-01
5.591760e-01 5.546604e-01 3.629682e-01
5.694948e-01 5.471634e-01 3.629682e-01
5.811467e-01 5.419756e-01 3.629682e-01
5.936227e-01 5.393237e-01 3.629682e-01
6.063773e-01 5.393237e-01 3.629682e-01
6.188533e-01 5.419756e-01 3.629682e-01
6.305052e-01 5.471634e-01 3.629682e-01
6.408240e-01 5.546604e-01 3.629682e-01
6.493585e-01 5.641389e-01 3.629682e-01
6.557359e-01 5.751848e-01 3.629682e-01
6.596773e-01 5.873152e-01 3.629682e-01
6.610105e-01 6.000000e-01 3.629682e-01
6.463525e-01 6.000000e-01 3.573415e-01
6.453396e-01 6.096372e-01 3.573415e-01
6.423452e-01 6.188533e-01 3.573415e-01
6.375000e-01 6.272453e-01 3.573415e-01
6.310159e-01 6.344467e-01 3.573415e-01
6.231763e-01 6.401425e-01 3.573415e-01
6.143237e-01 6.440839e-01 3.573415e-01
6.048452e-01 6.460986e-01 3.573415e-01
5.951548e-01 6.460986e-01 3.573415e-01
5.856763e-01 6.440839e-01 3.573415e-01
5.768237e-01 6.401425e-01 3.573415e-01
5.689841e-01 6.344467e-01 3.573415e-01
5.625000e-01 6.272453e-01 3.573415e-01
5.576548e-01 6.188533e-01 3.573415e-01
5.546604e-01 6.096372e-01 3.573415e-01
5.536475e-01 6.000000e-01 3.573415e-01
5.546604e-01 5.903628e-01 3.573415e-01
5.576548e-01 5.811467e-01 3.573415e-01
5.625000e-01 5.727547e-01 3.573415e-01
5.689841e-01 5.655533e-01 3.573415e-01
5.768237e-01 5.598575e-01 3.573415e-01
5.856763e-01 5.559161e-01 3.573415e-01
5.951548e-01 5.539014e-01 3.573415e-01
6.048452e-01 5.539014e-01 3.573415e-01
6.143237e-01 5.559161e-01 3.573415e-01
6.231763e-01 5.598575e-01 3.573415e-01
6.310159e-01 5.655533e-01 3.573415e-01
6.375000e-01 5.727547e-01 3.573415e-01
6.423452e-01 5.811467e-01 3.573415e-01
6.453396e-01 5.903628e-01 3.573415e-01
6.463525e-01 6.000000e-01 3.573415e-01
6.311868e-01 6.000000e-01 3.532779e-01
6.305052e-01 6.064841e-01 3.532779e-01
6.284905e-01 6.126848e-01 3.532779e-01
6.252306e-01 6.183311e-01 3.532779e-01
6.208680e-01 6.231763e-01 3.532779e-01
6.155934e-01 6.270085e-01 3.532779e-01
6.096372e-01 6.296604e-01 3.532779e-01
6.032599e-01 6.310159e-01 3.532779e-01
5.967401e-01 6.310159e-01 3.532779e-01
5.903628e-01 6.296604e-01 3.532779e-01
5.844066e-01 6.270085e-01 3.532779e-01
5.791320e-01 6.231763e-01 3.532779e-01
5.747694e-01 6.183311e-01 3.532779e-01
5.715095e-01 6.126848e-01 3.532779e-01
5.694948e-01 6.064841e-01 3.532779e-01
5.688132e-01 6.000000e-01 3.532779e-01
5.694948e-01 5.935159e-01 3.532779e-01
5.715095e-01 5.873152e-01 3.532779e-01
5.747694e-01 5.816689e-01 3.532779e-01
5.791320e-01 5.768237e-01 3.532779e-01
5.844066e-01 5.729915e-01 3.532779e-01
5.903628e-01 5.703396e-01 3.532779e-01
5.967401e-01 5.689841e-01 3.532779e-01
6.032599e-01 5.689841e-01 3.532779e-01
6.096372e-01 5.703396e-01 3.532779e-01
6.155934e-01 5.729915e-01 3.532779e-01
6.208680e-01 5.768237e-01 3.532779e-01
6.252306e-01 5.816689e-01 3.532779e-01
6.284905e-01 5.873152e-01 3.532779e-01
6.305052e-01 5.935159e-01 3.532779e-01
6.311868e-01 6.000000e-01 3.532779e-01
6.156793e-01 6.000000e-01 3.508217e-01
6.153366e-01 6.032599e-01 3.508217e-01
6.143237e-01 6.063773e-01 3.508217e-01
6.126848e-01 6.092160e-01 3.508217e-01
6.104915e-01 6.116520e-01 3.508217e-01
6.078396e-01 6.135786e-01 3.508217e-01
6.048452e-01 6.149119e-01 3.508217e-01
6.016389e-01 6.155934e-01 3.508217e-01
5.983611e-01 6.155934e-01 3.508217e-01
5.951548e-01 6.149119e-01 3.508217e-01
5.921604e-01 6.135786e-01 3.508217e-01
5.895085e-01 6.116520e-01 3.508217e-01
5.873152e-01 6.092160e-01 3.508217e-01
5.856763e-01 6.063773e-01 3.508217e-01
5.846634e-01 6.032599e-01 3.508217e-01
5.843207e-01 6.000000e-01 3.508217e-01
5.846634e-01 5.967401e-01 3.508217e-01
5.856763e-01 5.936227e-01 3.508217e-01
5.873152e-01 5.907840e-01 3.508217e-01
5.895085e-01 5.883480e-01 3.508217e-01
5.921604e-01 5.864214e-01 3.508217e-01
5.951548e-01 5.850881e-01 3.508217e-01
5.983611e-01 5.844066e-01 3.508217e-01
6.016389e-01 5.844066e-01 3.508217e-01
6.048452e-01 5.850881e-01 3.508217e-01
6.078396e-01 5.864214e-01 3.508217e-01
6.104915e-01 5.883480e-01 3.508217e-01
6.126848e-01 5.907840e-01 3.508217e-01
6.143237e-01 5.936227e-01 3.508217e-01
6.153366e-01 5.967401e-01 3.508217e-01
6.156793e-01 6.000000e-01 3.508217e-01
6.000000e-01 6.000000e-01 3.500000e-01
6.000000e-01 6.000000e-01 3.500000e-01
6.000000e-01 6.000000e-01 3.500000e-01
6.000000e-01 6.000000e-01 3.500000e-01
6.000000e-01 6.000000e-01 3.500000e-01
6.000000e-01 6.000000e-01 3.500000e-01
6.000000e-01 6.000000e-01 3.500000e-01
6.000000e-01 6.000000e-01 3.500000e-01
6.000000e-01 6.000000e-01 3.500000e-01
6.000000e-01 6.000000e-01 3.500000e-01
6.000000e-01 6.000000e-01 3.500000e-01
6.000000e-01 6.000000e-01 3.500000e-01
6.000000e-01 6.000000e-01 3.500000e-01
6.000000e-01 6.000000e-01 3.500000e-01
6.000000e-01 6.000000e-01 3.500000e-01
6.000000e-01 6.000000e-01 3.500000e-01
6.000000e-01 6.000000e-01 3.500000e-01
6.000000e-01 6.000000e-01 3.500000e-01
6.000000e-01 6.000000e-01 3.500000e-01
6.000000e-01 6.000000e-01 3.500000e-01
6.000000e-01 6.000000e-01 3.500000e-01
6.000000e-01 6.000000e-01 3.500000e-01
6.000000e-01 6.000000e-01 3.500000e-01
6.000000e-01 6.000000e-01 3.500000e-01
6.000000e-01 6.000000e-01 3.500000e-01
6.000000e-01 6.000000e-01 3.500000e-01
6.000000e-01 6.000000e-01 3.500000e-01
6.000000e-01 6.000000e-01 3.500000e-01
6.000000e-01 6.000000e-01 3.500000e-01
6.000000e-01 6.000000e-01 3.500000e-01
6.000000e-01 6.000000e-01 3.500000e-01
</DataArray>
</Points>
<Polys>
<DataArray type="Int32" Name="connectivity" format="ascii">
0 31 1
1 31 32
1 32 2
2 32 33
2 33 3
3 33 34
3 34 4
4 34 35
4 35 5
5 35 36
5 36 6
6 36 37
6 37 7
7 37 38
7 38 8
8 38 39
8 39 9
9 39 40
9 40 10
10 40 41
10 41 11
11 41 42
11 42 12
12 42 43
12 43 13
13 43 44
13 44 14
14 44 45
14 45 15
15 45 46
15 46 16
16 46 47
16 47 17
17 47 48
17 48 18
18 48 49
18 49 19
19 49 50
19 50 20
20 50 51
20 51 21
21 51 52
21 52 22
22 52 53
22 53 23
23 53 54
23 54 24
24 54 55
24 55 25
25 55 56
25 56 26
26 56 57
26 57 27
27 57 58
27 58 28
28 58 59
28 59 29
29 59 60
29 60 30
30 60 61
31 62 32
32 62 63
32 63 33
33 63 64
33 64 34
34 64 65
34 65 35
35 65 66
35 66 36
36 66 67
36 67 37
37 67 68
37 68 38
38 68 69
38 69 39
39 69 70
39 70 40
40 70 71
40 71 41
41 71 72
41 72 42
42 72 73
42 73 43
43 73 74
43 74 44
44 74 75
44 75 45
45 75 76
45 76 46
46 76 77
46 77 47
47 77 78
47 78 48
48 78 79
48 79 49
49 79 80
49 80 50
50 80 81
50 81 51
51 81 82
51 82 52
52 82 83
52 83 53
53 83 84
53 84 54
54 84 85
54 85 55
55 85 86
55 86 56
56 86 87
56 87 57
57 87 88
57 88 58
58 88 89
58 89 59
59 89 90
59 90 60
60 90 91
60 91 61
61 91 92
62 93 63
63 93 94
63 94 64
64 94 95
64 95 65
65 95 96
65 96 66
66 96 97
66 97 67
67 97 98
67 98 68
68 98 99
68 99 69
69 99 100
69 100 70
70 100 101
70 101 71
71 101 102
71 102 72
72 102 103
72 103 73
73 103 104
73 104 74
74 104 105
74 105 75
75 105 106
75 106 76
76 106 107
76 107 77
77 107 108
77 108 78
78 108 109
78 109 79
79 109 110
79 110 80
80 110 111
80 111 81
81 111 112
81 112 82
82 112 113
82 113 83
83 113 114
83 114 84
84 114 115
84 115 85
85 115 116
85 116 86
86 116 117
86 117 87
87 117 118
87 118 88
88 118 119
88 119 89
89 119 120
89 120 90
90 120 121
90 121 91
91 121 122
91 122 92
92 122 123
93 124 94
94 124 125
94 125 95
95 125 126
95 126 96
96 126 127
96 127 97
97 127 128
97 128 98
98 128 129
98 129 99
99 129 130
99 130 100
100 130 131
100 131 101
101 131 132
101 132 102
102 132 133
102 133 103
103 133 134
103 134 104
104 134 135
104 135 105
105 135 136
105 136 106
106 136 137
106 137 107
107 137 138
107 138 108
108 138 139
108 139 109
109 139 140
109 140 110
110 140 141
110 141 111
111 141 142
111 142 112
112 142 143
112 143 113
113 143 144
113 144 114
114 144 145
114 145 115
115 145 146
115 146 116
116 146 147
116 147 117
117 147 148
117 148 118
118 148 149
118 149 119
119 149 150
119 150 120
120 150 151
120 151 121
121 151 152
121 152 122
122 152 153
122 153 123
123 153 154
124 155 125
125 155 156
125 156 126
126 156 157
126 157 127
127 157 158
127 158 128
128 158 159
128 159 129
129 159 160
129 160 130
130 160 161
130 161 131
131 161 162
131 162 132
132 162 163
132 163 133
133 163 164
133 164 134
134 164 165
134 165 135
135 165 166
135 166 136
136 166 167
136 167 137
137 167 168
137 168 138
138 168 169
138 169 139
139 169 170
139 170 140
140 170 171
140 171 141
141 171 172
141 172 142
142 172 173
142 173 143
143 173 174
143 174 144
144 174 175
144 175 145
145 175 176
145 176 146
146 176 177
146 177 147
147 177 178
147 178 148
148 178 179
148 179 149
149 179 180
149 180 150
150 180 181
150 181 151
151 181 182
151 182 152
152 182 183
152 183 153
153 183 184
153 184 154
154 184 185
155 186 156
156 186 187
156 187 157
157 187 188
157 188 158
158 188 189
158 189 159
159 189 190
159 190 160
160 190 191
160 191 161
161 191 192
161 192 162
162 192 193
162 193 163
163 193 194
163 194 164
164 194 195
164 195 165
165 195 196
165 196 166
166 196 197
166 197 167
167 197 198
167 198 168
168 198 199
168 199 169
169 199 200
169 200 170
170 200 201
170 201 171
171 201 202
171 202 172
172 202 203
172 203 173
173 203 204
173 204 174
174 204 205
174 205 175
175 205 206
175 206 176
176 206 207
176 207 177
177 207 208
177 208 178
178 208 209
178 209 179
179 209 210
179 210 180
180 210 211
180 211 181
181 211 212
181 212 182
182 212 213
182 213 183
183 213 214
183 214 184
184 214 215
184 215 185
185 215 216
186 217 187
187 217 218
187 218 188
188 218 219
188 219 189
189 219 220
189 220 190
190 220 221
190 221 191
191 221 222
191 222 192
192 222 223
192 223 193
193 223 224
193 224 194
194 224 225
194 225 195
195 225 226
195 226 196
196 226 227
196 227 197
197 227 228
197 228 198
198 228 229
198 229 199
199 229 230
199 230 200
200 230 231
200 231 201
201 231 232
201 232 202
202 232 233
202 233 203
203 233 234
203 234 204
204 234 235
204 235 205
205 235 236
205 236 206
206 236 237
206 237 207
207 237 238
207 238 208
208 238 239
208 239 209
209 239 240
209 240 210
210 240 241
210 241 211
211 241 242
211 242 212
212 242 243
212 243 213
213 243 244
213 244 214
214 244 245
214 245 215
215 245 246
215 246 216
216 246 247
217 248 218
218 248 249
218 249 219
219 249 250
219 250 220
220 250 251
220 251 221
221 251 252
221 252 222
222 252 253
222 253 223
223 253 254
223 254 224
224 254 255
224 255 225
225 255 256
225 256 226
226 256 257
226 257 227
227 257 258
227 258 228
228 258 259
228 259 229
229 259 260
229 260 230
230 260 261
230 261 231
231 261 262
231 262 232
232 262 263
232 263 233
233 263 264
233 264 234
234 264 265
234 265 235
235 265 266
235 266 236
236 266 267
236 267 237
237 267 268
237 268 238
238 268 269
238 269 239
239 269 270
239 270 240
240 270 271
240 271 241
241 271 272
241 272 242
242 272 273
242 273 243
243 273 274
243 274 244
244 274 275
244 275 245
245 275 276
245 276 246
246 276 277
246 277 247
247 277 278
248 279 249
249 279 280
249 280 250
250 280 281
250 281 251
251 281 282
251 282 252
252 282 283
252 283 253
253 283 284
253 284 254
254 284 285
254 285 255
255 285 286
255 286 256
256 286 287
256 287 257
257 287 288
257 288 258
258 288 289
258 289 259
259 289 290
259 290 260
260 290 291
260 291 261
261 291 292
261 292 262
262 292 293
262 293 263
263 293 294
263 294 264
264 294 295
264 295 265
265 295 296
265 296 266
266 296 297
266 297 267
267 297 298
267 298 268
268 298 299
268 299 269
269 299 300
269 300 270
270 300 301
270 301 271
271 301 302
271 302 272
272 302 303
272 303 273
273 303 304
273 304 274
274 304 305
274 305 275
275 305 306
275 306 276
276 306 307
276 307 277
277 307 308
277 308 278
278 308 309
279 310 280
280 310 311
280 311 281
281 311 312
281 312 282
282 312 313
282 313 283
283 313 314
283 314 284
284 314 315
284 315 285
285 315 316
285 316 286
286 316 317
286 317 287
287 317 318
287 318 288
288 318 319
288 319 289
289 319 320
289 320 290
290 320 321
290 321 291
291 321 322
291 322 292
292 322 323
292 323 293
293 323 324
293 324 294
294 324 325
294 325 295
295 325 326
295 326 296
296 326 327
296 327 297
297 327 328
297 328 298
298 328 329
298 329 299
299 329 330
299 330 300
300 330 331
300 331 301
301 331 332
301 332 302
302 332 333
302 333 303
303 333 334
303 334 304
304 334 335
304 335 305
305 335 336
305 336 306
306 336 337
306 337 307
307 337 338
307 338 308
308 338 339
308 339 309
309 339 340
310 341 311
311 341 342
311 342 312
312 342 343
312 343 313
313 343 344
313 344 314
314 344 345
314 345 315
315 345 346
315 346 316
316 346 347
316 347 317
317 347 348
317 348 318
318 348 349
318 349 319
319 349 350
319 350 320
320 350 351
320 351 321
321 351 352
321 352 322
322 352 353
322 353 323
323 353 354
323 354 324
324 354 355
324 355 325
325 355 356
325 356 326
326 356 357
326 357 327
327 357 358
327 358 328
328 358 359
328 359 329
329 359 360
329 360 330
330 360 361
330 361 331
331 361 362
331 362 332
332 362 363
332 363 333
333 363 364
333 364 334
334 364 365
334 365 335
335 365 366
335 366 336
336 366 367
336 367 337
337 367 368
337 368 338
338 368 369
338 369 339
339 369 370
339 370 340
340 370 371
341 372 342
342 372 373
342 373 343
343 373 374
343 374 344
344 374 375
344 375 345
345 375 376
345 376 346
346 376 377
346 377 347
347 377 378
347 378 348
348 378 379
348 379 349
349 379 380
349 380 350
350 380 381
350 381 351
351 381 382
351 382 352
352 382 383
352 383 353
353 383 384
353 384 354
354 384 385
354 385 355
355 385 386
355 386 356
356 386 387
356 387 357
357 387 388
357 388 358
358 388 389
358 389 359
359 389 390
359 390 360
360 390 391
360 391 361
361 391 392
361 392 362
362 392 393
362 393 363
363 393 394
363 394 364
364 394 395
364 395 365
365 395 396
365 396 366
366 396 397
366 397 367
367 397 398
367 398 368
368 398 399
368 399 369
369 399 400
369 400 370
370 400 401
370 401 371
371 401 402
372 403 373
373 403 404
373 404 374
374 404 405
374 405 375
375 405 406
375 406 376
376 406 407
376 407 377
377 407 408
377 408 378
378 408 409
378 409 379
379 409 410
379 410 380
380 410 411
380 411 381
381 411 412
381 412 382
382 412 413
382 413 383
383 413 414
383 414 384
384 414 415
384 415 385
385 415 416
385 416 386
386 416 417
386 417 387
387 417 418
387 418 388
388 418 419
388 419 389
389 419 420
389 420 390
390 420 421
390 421 391
391 421 422
391 422 392
392 422 423
392 423 393
393 423 424
393 424 394
394 424 425
394 425 395
395 425 426
395 426 396
396 426 427
396 427 397
397 427 428
397 428 398
398 428 429
398 429 399
399 429 430
399 430 400
400 430 431
400 431 401
401 431 432
401 432 402
402 432 433
403 434 404
404 434 435
404 435 405
405 435 436
405 436 406
406 436 437
406 437 407
407 437 438
407 438 408
408 438 439
408 439 409
409 439 440
409 440 410
410 440 441
410 441 411
411 441 442
411 442 412
412 442 443
412 443 413
413 443 444
413 444 414
414 444 445
414 445 415
415 445 446
415 446 416
416 446 447
416 447 417
417 447 448
417 448 418
418 448 449
418 449 419
419 449 450
419 450 420
420 450 451
420 451 421
421 451 452
421 452 422
422 452 453
422 453 423
423 453 454
423 454 424
424 454 455
424 455 425
425 455 456
425 456 426
426 456 457
426 457 427
427 457 458
427 458 428
428 458 459
428 459 429
429 459 460
429 460 430
430 460 461
430 461 431
431 461 462
431 462 432
432 462 463
432 463 433
433 463 464
434 465 435
435 465 466
435 466 436
436 466 467
436 467 437
437 467 468
437 468 438
438 468 469
438 469 439
439 469 470
439 470 440
440 470 471
440 471 441
441 471 472
441 472 442
442 472 473
442 473 443
443 473 474
443 474 444
444 474 475
444 475 445
445 475 476
445 476 446
446 476 477
446 477 447
447 477 478
447 478 448
448 478 479
448 479 449
449 479 480
449 480 450
450 480 481
450 481 451
451 481 482
451 482 452
452 482 483
452 483 453
453 483 484
453 484 454
454 484 485
454 485 455
455 485 486
455 486 456
456 486 487
456 487 457
457 487 488
457 488 458
458 488 489
458 489 459
459 489 490
459 490 460
460 490 491
460 491 461
461 491 492
461 492 462
462 492 493
462 493 463
463 493 494
463 494 464
464 494 495
465 496 466
466 496 497
466 497 467
467 497 498
467 498 468
468 498 499
468 499 469
469 499 500
469 500 470
470 500 501
470 501 471
471 501 502
471 502 472
472 502 503
472 503 473
473 503 504
473 504 474
474 504 505
474 505 475
475 505 506
475 506 476
476 506 507
476 507 477
477 507 508
477 508 478
478 508 509
478 509 479
479 509 510
479 510 480
480 510 511
480 511 481
481 511 512
481 512 482
482 512 513
482 513 483
483 513 514
483 514 484
484 514 515
484 515 485
485 515 516
485 516 486
486 516 517
486 517 487
487 517 518
487 518 488
488 518 519
488 519 489
489 519 520
489 520 490
490 520 521
490 521 491
491 521 522
491 522 492
492 522 523
492 523 493
493 523 524
493 524 494
494 524 525
494 525 495
495 525 526
496 527 497
497 527 528
497 528 498
498 528 529
498 529 499
499 529 530
499 530 500
500 530 531
500 531 501
501 531 532
501 532 502
502 532 533
502 533 503
503 533 534
503 534 504
504 534 535
504 535 505
505 535 536
505 536 506
506 536 537
506 537 507
507 537 538
507 538 508
508 538 539
508 539 509
509 539 540
509 540 510
510 540 541
510 541 511
511 541 542
511 542 512
512 542 543
512 543 513
513 543 544
513 544 514
514 544 545
514 545 515
515 545 546
515 546 516
516 546 547
516 547 517
517 547 548
517 548 518
518 548 549
518 549 519
519 549 550
519 550 520
520 550 551
520 551 521
521 551 552
521 552 522
522 552 553
522 553 523
523 553 554
523 554 524
524 554 555
524 555 525
525 555 556
525 556 526
526 556 557
527 558 528
528 558 559
528 559 529
529 559 560
529 560 530
530 560 561
530 561 531
531 561 562
531 562 532
532 562 563
532 563 533
533 563 564
533 564 534
534 564 565
534 565 535
535 565 566
535 566 536
536 566 567
536 567 537
537 567 568
537 568 538
538 568 569
538 569 539
539 569 570
539 570 540
540 570 571
540 571 541
541 571 572
541 572 542
542 572 573
542 573 543
543 573 574
543 574 544
544 574 575
544 575 545
545 575 576
545 576 546
546 576 577
546 577 547
547 577 578
547 578 548
548 578 579
548 579 549
549 579 580
549 580 550
550 580 581
550 581 551
551 581 582
551 582 552
552 582 583
552 583 553
553 583 584
553 584 554
554 584 585
554 585 555
555 585 586
555 586 556
556 586 587
556 587 557
557 587 588
558 589 559
559 589 590
559 590 560
560 590 591
560 591 561
561 591 592
561 592 562
562 592 593
562 593 563
563 593 594
563 594 564
564 594 595
564 595 565
565 595 596
565 596 566
566 596 597
566 597 567
567 597 598
567 598 568
568 598 599
568 599 569
569 599 600
569 600 570
570 600 601
570 601 571
571 601 602
571 602 572
572 602 603
572 603 573
573 603 604
573 604 574
574 604 605
574 605 575
575 605 606
575 606 576
576 606 607
576 607 577
577 607 608
577 608 578
578 608 609
578 609 579
579 609 610
579 610 580
580 610 611
580 611 581
581 611 612
581 612 582
582 612 613
582 613 583
583 613 614
583 614 584
584 614 615
584 615 585
585 615 616
585 616 586
586 616 617
586 617 587
587 617 618
587 618 588
588 618 619
589 620 590
590 620 621
590 621 591
591 621 622
591 622 592
592 622 623
592 623 593
593 623 624
593 624 594
594 624 625
594 625 595
595 625 626
595 626 596
596 626 627
596 627 597
597 627 628
597 628 598
598 628 629
598 629 599
599 629 630
599 630 600
600 630 631
600 631 601
601 631 632
601 632 602
602 632 633
602 633 603
603 633 634
603 634 604
604 634 635
604 635 605
605 635 636
605 636 606
606 636 637
606 637 607
607 637 638
607 638 608
608 638 639
608 639 609
609 639 640
609 640 610
610 640 641
610 641 611
611 641 642
611 642 612
612 642 643
612 643 613
613 643 644
613 644 614
614 644 645
614 645 615
615 645 646
615 646 616
616 646 647
616 647 617
617 647 648
617 648 618
618 648 649
618 649 619
619 649 650
620 651 621
621 651 652
621 652 622
622 652 653
622 653 623
623 653 654
623 654 624
624 654 655
624 655 625
625 655 656
625 656 626
626 656 657
626 657 627
627 657 658
627 658 628
628 658 659
628 659 629
629 659 660
629 660 630
630 660 661
630 661 631
631 661 662
631 662 632
632 662 663
632 663 633
633 663 664
633 664 634
634 664 665
634 665 635
635 665 666
635 666 636
636 666 667
636 667 637
637 667 668
637 668 638
638 668 669
638 669 639
639 669 670
639 670 640
640 670 671
640 671 641
641 671 672
641 672 642
642 672 673
642 673 643
643 673 674
643 674 644
644 674 675
644 675 645
645 675 676
645 676 646
646 676 677
646 677 647
647 677 678
647 678 648
648 678 679
648 679 649
649 679 680
649 680 650
650 680 681
651 682 652
652 682 683
652 683 653
653 683 684
653 684 654
654 684 685
654 685 655
655 685 686
655 686 656
656 686 687
656 687 657
657 687 688
657 688 658
658 688 689
658 689 659
659 689 690
659 690 660
660 690 691
660 691 661
661 691 692
661 692 662
662 692 693
662 693 663
663 693 694
663 694 664
664 694 695
664 695 665
665 695 696
665 696 666
666 696 697
666 697 667
667 697 698
667 698 668
668 698 699
668 699 669
669 699 700
669 700 670
670 700 701
670 701 671
671 701 702
671 702 672
672 702 703
672 703 673
673 703 704
673 704 674
674 704 705
674 705 675
675 705 706
675 706 676
676 706 707
676 707 677
677 707 708
677 708 678
678 708 709
678 709 679
679 709 710
679 710 680
680 710 711
680 711 681
681 711 712
682 713 683
683 713 714
683 714 684
684 714 715
684 715 685
685 715 716
685 716 686
686 716 717
686 717 687
687 717 718
687 718 688
688 718 719
688 719 689
689 719 720
689 720 690
690 720 721
690 721 691
691 721 722
691 722 692
692 722 723
692 723 693
693 723 724
693 724 694
694 724 725
694 725 695
695 725 726
695 726 696
696 726 727
696 727 697
697 727 728
697 728 698
698 728 729
698 729 699
699 729 730
699 730 700
700 730 731
700 731 701
701 731 732
701 732 702
702 732 733
702 733 703
703 733 734
703 734 704
704 734 735
704 735 705
705 735 736
705 736 706
706 736 737
706 737 707
707 737 738
707 738 708
708 738 739
708 739 709
709 739 740
709 740 710
710 740 741
710 741 711
711 741 742
711 742 712
712 742 743
713 744 714
714 744 745
714 745 715
715 745 746
715 746 716
716 746 747
716 747 717
717 747 748
717 748 718
718 748 749
718 749 719
719 749 750
719 750 720
720 750 751
720 751 721
721 751 752
721 752 722
722 752 753
722 753 723
723 753 754
723 754 724
724 754 755
724 755 725
725 755 756
725 756 726
726 756 757
726 757 727
727 757 758
727 758 728
728 758 759
728 759 729
729 759 760
729 760 730
730 760 761
730 761 731
731 761 762
731 762 732
732 762 763
732 763 733
733 763 764
733 764 734
734 764 765
734 765 735
735 765 766
735 766 736
736 766 767
736 767 737
737 767 768
737 768 738
738 768 769
738 769 739
739 769 770
739 770 740
740 770 771
740 771 741
741 771 772
741 772 742
742 772 773
742 773 743
743 773 774
744 775 745
745 775 776
745 776 746
746 776 777
746 777 747
747 777 778
747 778 748
748 778 779
748 779 749
749 779 780
749 780 750
750 780 781
750 781 751
751 781 782
751 782 752
752 782 783
752 783 753
753 783 784
753 784 754
754 784 785
754 785 755
755 785 786
755 786 756
756 786 787
756 787 757
757 787 788
757 788 758
758 788 789
758 789 759
759 789 790
759 790 760
760 790 791
760 791 761
761 791 792
761 792 762
762 792 793
762 793 763
763 793 794
763 794 764
764 794 795
764 795 765
765 795 796
765 796 766
766 796 797
766 797 767
767 797 798
767 798 768
768 798 799
768 799 769
769 799 800
769 800 770
770 800 801
770 801 771
771 801 802
771 802 772
772 802 803
772 803 773
773 803 804
773 804 774
774 804 805
775 806 776
776 806 807
776 807 777
777 807 808
777 808 778
778 808 809
778 809 779
779 809 810
779 810 780
780 810 811
780 811 781
781 811 812
781 812 782
782 812 813
782 813 783
783 813 814
783 814 784
784 814 815
784 815 785
785 815 816
785 816 786
786 816 817
786 817 787
787 817 818
787 818 788
788 818 819
788 819 789
789 819 820
789 820 790
790 820 821
790 821 791
791 821 822
791 822 792
792 822 823
792 823 793
793 823 824
793 824 794
794 824 825
794 825 795
795 825 826
795 826 796
796 826 827
796 827 797
797 827 828
797 828 798
798 828 829
798 829 799
799 829 830
799 830 800
800 830 831
800 831 801
801 831 832
801 832 802
802 832 833
802 833 803
803 833 834
803 834 804
804 834 835
804 835 805
805 835 836
806 837 807
807 837 838
807 838 808
808 838 839
808 839 809
809 839 840
809 840 810
810 840 841
810 841 811
811 841 842
811 842 812
812 842 843
812 843 813
813 843 844
813 844 814
814 844 845
814 845 815
815 845 846
815 846 816
816 846 847
816 847 817
817 847 848
817 848 818
818 848 849
818 849 819
819 849 850
819 850 820
820 850 851
820 851 821
821 851 852
821 852 822
822 852 853
822 853 823
823 853 854
823 854 824
824 854 855
824 855 825
825 855 856
825 856 826
826 856 857
826 857 827
827 857 858
827 858 828
828 858 859
828 859 829
829 859 860
829 860 830
830 860 861
830 861 831
831 861 862
831 862 832
832 862 863
832 863 833
833 863 864
833 864 834
834 864 865
834 865 835
835 865 866
835 866 836
836 866 867
837 868 838
838 868 869
838 869 839
839 869 870
839 870 840
840 870 871
840 871 841
841 871 872
841 872 842
842 872 873
842 873 843
843 873 874
843 874 844
844 874 875
844 875 845
845 875 876
845 876 846
846 876 877
846 877 847
847 877 878
847 878 848
848 878 879
848 879 849
849 879 880
849 880 850
850 880 881
850 881 851
851 881 882
851 882 852
852 882 883
852 883 853
853 883 884
853 884 854
854 884 885
854 885 855
855 885 886
855 886 856
856 886 887
856 887 857
857 887 888
857 888 858
858 888 889
858 889 859
859 889 890
859 890 860
860 890 891
860 891 861
861 891 892
861 892 862
862 892 893
862 893 863
863 893 894
863 894 864
864 894 895
864 895 865
865 895 896
865 896 866
866 896 897
866 897 867
867 897 898
868 899 869
869 899 900
869 900 870
870 900 901
870 901 871
871 901 902
871 902 872
872 902 903
872 903 873
873 903 904
873 904 874
874 904 905
874 905 875
875 905 906
875 906 876
876 906 907
876 907 877
877 907 908
877 908 878
878 908 909
878 909 879
879 909 910
879 910 880
880 910 911
880 911 881
881 911 912
881 912 882
882 912 913
882 913 883
883 913 914
883 914 884
884 914 915
884 915 885
885 915 916
885 916 886
886 916 917
886 917 887
887 917 918
887 918 888
888 918 919
888 919 889
889 919 920
889 920 890
890 920 921
890 921 891
891 921 922
891 922 892
892 922 923
892 923 893
893 923 924
893 924 894
894 924 925
894 925 895
895 925 926
895 926 896
896 926 927
896 927 897
897 927 928
897 928 898
898 928 929
899 930 900
900 930 931
900 931 901
901 931 932
901 932 902
902 932 933
902 933 903
903 933 934
903 934 904
904 934 935
904 935 905
905 935 936
905 936 906
906 936 937
906 937 907
907 937 938
907 938 908
908 938 939
908 939 909
909 939 940
909 940 910
910 940 941
910 941 911
911 941 942
911 942 912
912 942 943
912 943 913
913 943 944
913 944 914
914 944 945
914 945 915
915 945 946
915 946 916
916 946 947
916 947 917
917 947 948
917 948 918
918 948 949
918 949 919
919 949 950
919 950 920
920 950 951
920 951 921
921 951 952
921 952 922
922 952 953
922 953 923
923 953 954
923 954 924
924 954 955
924 955 925
925 955 956
925 956 926
926 956 957
926 957 927
927 957 958
927 958 928
928 958 959
928 959 929
929 959 960
</DataArray>
<DataArray type="Int32" Name="offsets" format="ascii">
3
6
9
12
15
18
21
24
27
30
33
36
39
42
45
48
51
54
57
60
63
66
69
72
75
78
81
84
87
90
93
96
99
102
105
108
111
114
117
120
123
126
129
132
135
138
141
144
147
150
153
156
159
162
165
168
171
174
177
180
183
186
189
192
195
198
201
204
207
210
213
216
219
222
225
228
231
234
237
240
243
246
249
252
255
258
261
264
267
270
273
276
279
282
285
288
291
294
297
300
303
306
309
312
315
318
321
324
327
330
333
336
339
342
345
348
351
354
357
360
363
366
369
372
375
378
381
384
387
390
393
396
399
402
405
408
411
414
417
420
423
426
429
432
435
438
441
444
447
450
453
456
459
462
465
468
471
474
477
480
483
486
489
492
495
498
501
504
507
510
513
516
519
522
525
528
531
534
537
540
543
546
549
552
555
558
561
564
567
570
573
576
579
582
585
588
591
594
597
600
603
606
609
612
615
618
621
624
627
630
633
636
639
642
645
648
651
654
657
660
663
666
669
672
675
678
681
684
687
690
693
696
699
702
705
708
711
714
717
720
723
726
729
732
735
738
741
744
747
750
753
756
759
762
765
768
771
774
777
780
783
786
789
792
795
798
801
804
807
810
813
816
819
822
825
828
831
834
837
840
843
846
849
852
855
858
861
864
867
870
873
876
879
882
885
888
891
894
897
900
903
906
909
912
915
918
921
924
927
930
933
936
939
942
945
948
951
954
957
960
963
966
969
972
975
978
981
984
987
990
993
996
999
1002
1005
1008
1011
1014
1017
1020
1023
1026
1029
1032
1035
1038
1041
1044
1047
1050
1053
1056
1059
1062
1065
1068
1071
1074
1077
1080
1083
1086
1089
1092
1095
1098
1101
1104
1107
1110
1113
1116
1119
1122
1125
1128
1131
1134
1137
1140
1143
1146
1149
1152
1155
1158
1161
1164
1167
1170
1173
1176
1179
1182
1185
1188
1191
1194
1197
1200
1203
1206
1209
1212
1215
1218
1221
1224
1227
1230
1233
1236
1239
1242
1245
1248
1251
1254
1257
1260
1263
1266
1269
1272
1275
1278
1281
1284
1287
1290
1293
1296
1299
1302
1305
1308
1311
1314
1317
1320
1323
1326
1329
1332
1335
1338
1341
1344
1347
1350
1353
1356
1359
1362
1365
1368
1371
1374
1377
1380
1383
1386
1389
1392
1395
1398
1401
1404
1407
1410
1413
1416
1419
1422
1425
1428
1431
1434
1437
1440
1443
1446
1449
1452
1455
1458
1461
1464
1467
1470
1473
1476
1479
1482
1485
1488
1491
1494
1497
1500
1503
1506
1509
1512
1515
1518
1521
1524
1527
1530
1533
1536
1539
1542
1545
1548
1551
1554
1557
1560
1563
1566
1569
1572
1575
1578
1581
1584
1587
1590
1593
1596
1599
1602
1605
1608
1611
1614
1617
1620
1623
1626
1629
1632
1635
1638
1641
1644
1647
1650
1653
1656
1659
1662
1665
1668
1671
1674
1677
1680
1683
1686
1689
1692
1695
1698
1701
1704
1707
1710
1713
1716
1719
1722
1725
1728
1731
1734
1737
1740
1743
1746
1749
1752
1755
1758
1761
1764
1767
1770
1773
1776
1779
1782
1785
1788
1791
1794
1797
1800
1803
1806
1809
1812
1815
1818
1821
1824
1827
1830
1833
1836
1839
1842
1845
1848
1851
1854
1857
1860
1863
1866
1869
1872
1875
1878
1881
1884
1887
1890
1893
1896
1899
1902
1905
1908
1911
1914
1917
1920
1923
1926
1929
1932
1935
1938
1941
1944
1947
1950
1953
1956
1959
1962
1965
1968
1971
1974
1977
1980
1983
1986
1989
1992
1995
1998
2001
2004
2007
2010
2013
2016
2019
2022
2025
2028
2031
2034
2037
2040
2043
2046
2049
2052
2055
2058
2061
2064
2067
2070
2073
2076
2079
2082
2085
2088
2091
2094
2097
2100
2103
2106
2109
2112
2115
2118
2121
2124
2127
2130
2133
2136
2139
2142
2145
2148
2151
2154
2157
2160
2163
2166
2169
2172
2175
2178
2181
2184
2187
2190
2193
2196
2199
2202
2205
2208
2211
2214
2217
2220
2223
2226
2229
2232
2235
2238
2241
2244
2247
2250
2253
2256
2259
2262
2265
2268
2271
2274
2277
2280
2283
2286
2289
2292
2295
2298
2301
2304
2307
2310
2313
2316
2319
2322
2325
2328
2331
2334
2337
2340
2343
2346
2349
2352
2355
2358
2361
2364
2367
2370
2373
2376
2379
2382
2385
2388
2391
2394
2397
2400
2403
2406
2409
2412
2415
2418
2421
2424
2427
2430
2433
2436
2439
2442
2445
2448
2451
2454
2457
2460
2463
2466
2469
2472
2475
2478
2481
2484
2487
2490
2493
2496
2499
2502
2505
2508
2511
2514
2517
2520
2523
2526
2529
2532
2535
2538
2541
2544
2547
2550
2553
2556
2559
2562
2565
2568
2571
2574
2577
2580
2583
2586
2589
2592
2595
2598
2601
2604
2607
2610
2613
2616
2619
2622
2625
2628
2631
2634
2637
2640
2643
2646
2649
2652
2655
2658
2661
2664
2667
2670
2673
2676
2679
2682
2685
2688
2691
2694
2697
2700
2703
2706
2709
2712
2715
2718
2721
2724
2727
2730
2733
2736
2739
2742
2745
2748
2751
2754
2757
2760
2763
2766
2769
2772
2775
2778
2781
2784
2787
2790
2793
2796
2799
2802
2805
2808
2811
2814
2817
2820
2823
2826
2829
2832
2835
2838
2841
2844
2847
2850
2853
2856
2859
2862
2865
2868
2871
2874
2877
2880
2883
2886
2889
2892
2895
2898
2901
2904
2907
2910
2913
2916
2919
2922
2925
2928
2931
2934
2937
2940
2943
2946
2949
2952
2955
2958
2961
2964
2967
2970
2973
2976
2979
2982
2985
2988
2991
2994
2997
3000
3003
3006
3009
3012
3015
3018
3021
3024
3027
3030
3033
3036
3039
3042
3045
3048
3051
3054
3057
3060
3063
3066
3069
3072
3075
3078
3081
3084
3087
3090
3093
3096
3099
3102
3105
3108
3111
3114
3117
3120
3123
3126
3129
3132
3135
3138
3141
3144
3147
3150
3153
3156
3159
3162
3165
3168
3171
3174
3177
3180
3183
3186
3189
3192
3195
3198
3201
3204
3207
3210
3213
3216
3219
3222
3225
3228
3231
3234
3237
3240
3243
3246
3249
3252
3255
3258
3261
3264
3267
3270
3273
3276
3279
3282
3285
3288
3291
3294
3297
3300
3303
3306
3309
3312
3315
3318
3321
3324
3327
3330
3333
3336
3339
3342
3345
3348
3351
3354
3357
3360
3363
3366
3369
3372
3375
3378
3381
3384
3387
3390
3393
3396
3399
3402
3405
3408
3411
3414
3417
3420
3423
3426
3429
3432
3435
3438
3441
3444
3447
3450
3453
3456
3459
3462
3465
3468
3471
3474
3477
3480
3483
3486
3489
3492
3495
3498
3501
3504
3507
3510
3513
3516
3519
3522
3525
3528
3531
3534
3537
3540
3543
3546
3549
3552
3555
3558
3561
3564
3567
3570
3573
3576
3579
3582
3585
3588
3591
3594
3597
3600
3603
3606
3609
3612
3615
3618
3621
3624
3627
3630
3633
3636
3639
3642
3645
3648
3651
3654
3657
3660
3663
3666
3669
3672
3675
3678
3681
3684
3687
3690
3693
3696
3699
3702
3705
3708
3711
3714
3717
3720
3723
3726
3729
3732
3735
3738
3741
3744
3747
3750
3753
3756
3759
3762
3765
3768
3771
3774
3777
3780
3783
3786
3789
3792
3795
3798
3801
3804
3807
3810
3813
3816
3819
3822
3825
3828
3831
3834
3837
3840
3843
3846
3849
3852
3855
3858
3861
3864
3867
3870
3873
3876
3879
3882
3885
3888
3891
3894
3897
3900
3903
3906
3909
3912
3915
3918
3921
3924
3927
3930
3933
3936
3939
3942
3945
3948
3951
3954
3957
3960
3963
3966
3969
3972
3975
3978
3981
3984
3987
3990
3993
3996
3999
4002
4005
4008
4011
4014
4017
4020
4023
4026
4029
4032
4035
4038
4041
4044
4047
4050
4053
4056
4059
4062
4065
4068
4071
4074
4077
4080
4083
4086
4089
4092
4095
4098
4101
4104
4107
4110
4113
4116
4119
4122
4125
4128
4131
4134
4137
4140
4143
4146
4149
4152
4155
4158
4161
4164
4167
4170
4173
4176
4179
4182
4185
4188
4191
4194
4197
4200
4203
4206
4209
4212
4215
4218
4221
4224
4227
4230
4233
4236
4239
4242
4245
4248
4251
4254
4257
4260
4263
4266
4269
4272
4275
4278
4281
4284
4287
4290
4293
4296
4299
4302
4305
4308
4311
4314
4317
4320
4323
4326
4329
4332
4335
4338
4341
4344
4347
4350
4353
4356
4359
4362
4365
4368
4371
4374
4377
4380
4383
4386
4389
4392
4395
4398
4401
4404
4407
4410
4413
4416
4419
4422
4425
4428
4431
4434
4437
4440
4443
4446
4449
4452
4455
4458
4461
4464
4467
4470
4473
4476
4479
4482
4485
4488
4491
4494
4497
4500
4503
4506
4509
4512
4515
4518
4521
4524
4527
4530
4533
4536
4539
4542
4545
4548
4551
4554
4557
4560
4563
4566
4569
4572
4575
4578
4581
4584
4587
4590
4593
4596
4599
4602
4605
4608
4611
4614
4617
4620
4623
4626
4629
4632
4635
4638
4641
4644
4647
4650
4653
4656
4659
4662
4665
4668
4671
4674
4677
4680
4683
4686
4689
4692
4695
4698
4701
4704
4707
4710
4713
4716
4719
4722
4725
4728
4731
4734
4737
4740
4743
4746
4749
4752
4755
4758
4761
4764
4767
4770
4773
4776
4779
4782
4785
4788
4791
4794
4797
4800
4803
4806
4809
4812
4815
4818
4821
4824
4827
4830
4833
4836
4839
4842
4845
4848
4851
4854
4857
4860
4863
4866
4869
4872
4875
4878
4881
4884
4887
4890
4893
4896
4899
4902
4905
4908
4911
4914
4917
4920
4923
4926
4929
4932
4935
4938
4941
4944
4947
4950
4953
4956
4959
4962
4965
4968
4971
4974
4977
4980
4983
4986
4989
4992
4995
4998
5001
5004
5007
5010
5013
5016
5019
5022
5025
5028
5031
5034
5037
5040
5043
5046
5049
5052
5055
5058
5061
5064
5067
5070
5073
5076
5079
5082
5085
5088
5091
5094
5097
5100
5103
5106
5109
5112
5115
5118
5121
5124
5127
5130
5133
5136
5139
5142
5145
5148
5151
5154
5157
5160
5163
5166
5169
5172
5175
5178
5181
5184
5187
5190
5193
5196
5199
5202
5205
5208
5211
5214
5217
5220
5223
5226
5229
5232
5235
5238
5241
5244
5247
5250
5253
5256
5259
5262
5265
5268
5271
5274
5277
5280
5283
5286
5289
5292
5295
5298
5301
5304
5307
5310
5313
5316
5319
5322
5325
5328
5331
5334
5337
5340
5343
5346
5349
5352
5355
5358
5361
5364
5367
5370
5373
5376
5379
5382
5385
5388
5391
5394
5397
5400
</DataArray>
</Polys>
</Piece>
</PolyData>
</VTKFile>
